<svg width="29.999999999999996" height="29.999999999999996" xmlns="http://www.w3.org/2000/svg">

 <g>
  <title>background</title>
  <rect fill="none" id="canvas_background" height="32" width="32" y="-1" x="-1"/>
 </g>
 <g>
  <title>Layer 1</title>
  <path fill="#ffffff" stroke="null" id="svg_1" d="m13.722892,18.307708l0,-14.801674a1.277107,1.277107 0 0 1 2.554215,0l0,14.801674l4.214454,-4.214454a1.277107,1.277107 0 0 1 1.78795,1.813492l-6.385537,6.385537a1.277107,1.277107 0 0 1 -1.78795,0l-6.385537,-6.385537a1.277107,1.277107 0 0 1 1.78795,-1.813492l4.214454,4.214454zm-10.216859,3.077829a1.277107,1.277107 0 0 1 2.554215,0l0,3.831322l17.879503,0l0,-3.831322a1.277107,1.277107 0 0 1 2.554215,0l0,3.831322a2.554215,2.554215 0 0 1 -2.554215,2.554215l-17.879503,0a2.554215,2.554215 0 0 1 -2.554215,-2.554215l0,-3.831322z" class="heroicon-ui"/>
 </g>
</svg>