<svg width="30" height="30" xmlns="http://www.w3.org/2000/svg">

 <g>
  <title>background</title>
  <rect fill="none" id="canvas_background" height="32" width="32" y="-1" x="-1"/>
 </g>
 <g>
  <title>Layer 1</title>
  <path fill="#ffffff" stroke="null" id="svg_2" d="m22.400348,19.440209c-1.017104,0 -1.951324,0.345744 -2.699943,0.921195l-7.724779,-4.63469c0.038778,-0.237107 0.064235,-0.478951 0.064235,-0.726714c0,-0.248356 -0.025457,-0.489607 -0.064235,-0.72701l7.724779,-4.63469c0.748619,0.576043 1.682839,0.921491 2.699943,0.921491c2.451883,0 4.440209,-1.988325 4.440209,-4.440209s-1.988325,-4.440209 -4.440209,-4.440209s-4.440209,1.988325 -4.440209,4.440209c0,0.247764 0.025457,0.489607 0.064827,0.726714l-7.724779,4.63469c-0.748619,-0.575451 -1.682839,-0.921195 -2.700535,-0.921195c-2.451883,0 -4.440209,1.988325 -4.440209,4.440209s1.988325,4.440209 4.440209,4.440209c1.017696,0 1.951916,-0.345448 2.700535,-0.921491l7.724779,4.63469c-0.03937,0.237403 -0.064827,0.478654 -0.064827,0.72701c0,2.451883 1.988325,4.440209 4.440209,4.440209s4.440209,-1.988325 4.440209,-4.440209s-1.988325,-4.440209 -4.440209,-4.440209z"/>
 </g>
</svg>