<svg width="32" height="32" xmlns="http://www.w3.org/2000/svg">
 <title/>

 <g>
  <title>background</title>
  <rect fill="none" id="canvas_background" height="402" width="582" y="-1" x="-1"/>
 </g>
 <g>
  <title>Layer 1</title>
  <path fill="#ffffff" id="svg_1" d="m17.5,11l-3,0a2,2 0 0 1 -2,-2l0,-3a2,2 0 0 1 2,-2l3,0a2,2 0 0 1 2,2l0,3a2,2 0 0 1 -2,2z"/>
  <path fill="#ffffff" id="svg_2" d="m9,11l-3,0a2,2 0 0 1 -2,-2l0,-3a2,2 0 0 1 2,-2l3,0a2,2 0 0 1 2,2l0,3a2,2 0 0 1 -2,2z"/>
  <path fill="#ffffff" id="svg_3" d="m26,11l-3,0a2,2 0 0 1 -2,-2l0,-3a2,2 0 0 1 2,-2l3,0a2,2 0 0 1 2,2l0,3a2,2 0 0 1 -2,2z"/>
  <path fill="#ffffff" id="svg_4" d="m17.5,28l-3,0a2,2 0 0 1 -2,-2l0,-3a2,2 0 0 1 2,-2l3,0a2,2 0 0 1 2,2l0,3a2,2 0 0 1 -2,2z"/>
  <path fill="#ffffff" id="svg_5" d="m9,28l-3,0a2,2 0 0 1 -2,-2l0,-3a2,2 0 0 1 2,-2l3,0a2,2 0 0 1 2,2l0,3a2,2 0 0 1 -2,2z"/>
  <path fill="#ffffff" id="svg_6" d="m26,28l-3,0a2,2 0 0 1 -2,-2l0,-3a2,2 0 0 1 2,-2l3,0a2,2 0 0 1 2,2l0,3a2,2 0 0 1 -2,2z"/>
  <path fill="#ffffff" id="svg_7" d="m17.5,19.5l-3,0a2,2 0 0 1 -2,-2l0,-3a2,2 0 0 1 2,-2l3,0a2,2 0 0 1 2,2l0,3a2,2 0 0 1 -2,2z"/>
  <path fill="#ffffff" id="svg_8" d="m9,19.5l-3,0a2,2 0 0 1 -2,-2l0,-3a2,2 0 0 1 2,-2l3,0a2,2 0 0 1 2,2l0,3a2,2 0 0 1 -2,2z"/>
  <path fill="#ffffff" id="svg_9" d="m26,19.5l-3,0a2,2 0 0 1 -2,-2l0,-3a2,2 0 0 1 2,-2l3,0a2,2 0 0 1 2,2l0,3a2,2 0 0 1 -2,2z"/>
 </g>
</svg>