<svg width="32" height="32" xmlns="http://www.w3.org/2000/svg">

 <g>
  <title>background</title>
  <rect fill="none" id="canvas_background" height="402" width="582" y="-1" x="-1"/>
 </g>
 <g>
  <title>Layer 1</title>
  <g stroke="null" id="svg_9">
   <path stroke="null" id="svg_1" fill="#ffffff" d="m26.843571,3.607349l-21.68714,0c-0.855867,0 -1.549081,0.693214 -1.549081,1.549081l0,21.68714c0,0.855867 0.693214,1.549081 1.549081,1.549081l21.68714,0c0.855093,0 1.549081,-0.693214 1.549081,-1.549081l0,-21.68714c0,-0.855867 -0.693988,-1.549081 -1.549081,-1.549081zm0,23.236221l-21.68714,0l0,-21.68714l21.68714,0l0,21.68714z"/>
   <path stroke="null" id="svg_2" fill="#ffffff" d="m10.788116,21.194845c0.305169,0.302071 0.800875,0.302071 1.106819,0l4.123655,-4.089575l4.086477,4.086477c0.305169,0.305944 0.800875,0.305944 1.106044,0c0.305169,-0.305944 0.305169,-0.803199 0,-1.109142l-4.08028,-4.081055l4.057044,-4.023739c0.305169,-0.302845 0.305169,-0.79313 0,-1.095201c-0.305169,-0.302845 -0.800875,-0.302845 -1.106044,0l-4.051622,4.018317l-4.112037,-4.112811c-0.305169,-0.305944 -0.800875,-0.305944 -1.106044,0c-0.305169,0.306718 -0.305169,0.803199 0,1.109142l4.10584,4.106615l-4.129077,4.094997c-0.305944,0.302845 -0.305944,0.793904 -0.000775,1.095975z"/>
  </g>
 </g>
</svg>