<svg width="30.000000000000004" height="30.000000000000004" xmlns="http://www.w3.org/2000/svg">

 <g>
  <title>background</title>
  <rect fill="none" id="canvas_background" height="32" width="32" y="-1" x="-1"/>
 </g>
 <g>
  <title>Layer 1</title>
  <path fill="#ffffff" stroke="null" id="svg_1" d="m19.331469,15.001046l8.336462,7.146077l-0.759059,0.759059l-8.399874,-7.200071l-3.504813,3.004215l-3.463794,-2.969265l-8.357181,7.164075l-0.796729,-0.796729l8.29042,-7.107569l-8.333532,-7.144403l0.759059,-0.759059l11.861157,10.16829l2.682343,-2.299569l-0.007325,-0.006697l0.015277,0l9.172536,-7.863698l0.797566,0.797566l-8.292513,7.107779zm10.350992,7.905973l0,-15.810899c0,-0.625329 -0.505621,-1.132414 -1.129275,-1.132414c-0.004395,0 -0.00858,0.000628 -0.012975,0.000837c-0.004395,-0.000209 -0.00879,-0.000837 -0.013185,-0.000837c-0.06969,0 -0.137078,0.007325 -0.204048,0.020509l0,-0.016742l-25.670292,0l0,-0.001674l-1.170713,0c-0.01172,-0.000628 -0.02323,-0.002093 -0.035159,-0.002093c-0.004186,0 -0.00858,0.000628 -0.012975,0.000837c-0.004604,-0.000209 -0.00858,-0.000837 -0.013185,-0.000837c-0.609424,0 -1.103115,0.495157 -1.103115,1.105836c0,0.004395 0.000628,0.00879 0.000628,0.013185c0,0.004395 -0.000628,0.008999 -0.000628,0.013394l0,15.810899c0,0.623445 0.505621,1.129275 1.129275,1.129275l27.106162,0c0.623864,-0.000209 1.129484,-0.50583 1.129484,-1.129275"/>
 </g>
</svg>