<svg width="50" height="50" xmlns="http://www.w3.org/2000/svg">

 <g>
  <title>background</title>
  <rect fill="none" id="canvas_background" height="52" width="52" y="-1" x="-1"/>
 </g>
 <g>
  <title>Layer 1</title>
  <g id="svg_4">
   <g id="svg_5">
    <path id="svg_2" fill="#000000" d="m25,1c-13.255,0 -24,10.745 -24,24c0,13.256 10.745,24 24,24c13.255,0 24,-10.744 24,-24c0,-13.255 -10.744,-24 -24,-24zm0.112,44.092c-11.069,0 -20.042,-8.973 -20.042,-20.042c0,-11.069 8.973,-20.042 20.042,-20.042c11.068,0 20.041,8.973 20.041,20.042c-0.001,11.069 -8.973,20.042 -20.041,20.042z"/>
    <path transform="rotate(-180 25,25) " id="svg_3" fill="#000000" d="m32.7545,20.760999c-0.572,0 -1.115,0.124 -1.607,0.339l-9.899,-5.909c-0.087,-2.144 -1.839,-3.857 -4.003,-3.857c-2.221,0 -4.021,1.8 -4.021,4.02c0,2.221 1.8,4.02 4.021,4.02c1.143,0 2.169,-0.482 2.901,-1.248l8.845,5.28c-0.158,0.432 -0.258,0.891 -0.258,1.377c0,0.327 0.051,0.642 0.125,0.946l-9.407,5.56c-0.634,-0.416 -1.39,-0.664 -2.206,-0.664c-2.221,0 -4.021,1.801 -4.021,4.021s1.8,4.02 4.021,4.02c2.22,0 4.02,-1.799 4.02,-4.02c0,-0.273 -0.028,-0.541 -0.081,-0.799l9.518,-5.625c0.602,0.361 1.299,0.58 2.053,0.58c2.219,0 4.02,-1.799 4.02,-4.02s-1.802,-4.021 -4.021,-4.021zm-15.51,-3.867c-0.851,0 -1.541,-0.689 -1.541,-1.54s0.69,-1.541 1.541,-1.541c0.85,0 1.54,0.69 1.54,1.541s-0.69,1.54 -1.54,1.54zm0,19.292c-0.851,0 -1.541,-0.689 -1.541,-1.541s0.69,-1.541 1.541,-1.541c0.85,0 1.54,0.689 1.54,1.541s-0.69,1.541 -1.54,1.541zm15.51,-9.864c-0.852,0 -1.541,-0.69 -1.541,-1.541s0.689,-1.541 1.541,-1.541c0.85,0 1.539,0.69 1.539,1.541s-0.69,1.541 -1.539,1.541z"/>
   </g>
  </g>
 </g>
</svg>